#!OML:ASF F:\VICON\USERDATA\INSTALL\rory3\rory3.ASF
:FULLY-SPECIFIED
:DEGREES
79
root 0.334176374040636 17.67199499818911 15.345054189487058 -3.5284405102045246 0.6494721899170662 -3.9963232096513988
lfemur -3.7762288958448083 2.01921389370023 -16.703560989640774
ltibia 58.33634125204448
lfoot -6.220372957942065 -4.35929136185228
ltoes -14.972202826327742
rfemur -22.771131175338684 3.37257124779435 27.948144392820033
rtibia 26.238681003588564
rfoot -4.932016736127704 -7.449598991590442
rtoes 10.653495809171517
lowerback 11.306851380008723 -0.5608367331980093 1.4566651049461576
upperback 0.06901550370787013 -0.3681383876327733 2.495527979190136
thorax -6.14512296102733 -0.17012649498922397 2.290534785267318
lowerneck -16.65927498508346 -3.508286441490403 -2.772319926609834
upperneck 20.961459272870457 -4.826828230198535 3.0969082792888467
head 9.450430432195544 -2.1526766508661397 0.8584556740581073
lclavicle 2.980692950440509e-16 5.4676566123688816e-17
lhumerus -31.871344293567912 3.845891092797443 79.39903324264266
lradius 33.274362020149496
lwrist 12.105694941705963
lhand -29.929102822928055 17.48089827753086
lfingers 7.125020000000001
lthumb -3.0218935850433564 47.917085991336045
rclavicle 3.0473047143409424e-16 5.906231672562705e-17
rhumerus -34.68364636364868 -20.862432716828803 -75.06192270022716
rradius 24.840920690602417
rwrist 5.7710365399903205
rhand -17.202690280045825 23.5271715668849
rfingers 7.125020000000001
rthumb 8.922074554404796 -6.344530132236031
80
root 0.28723407680101687 17.886378390158637 12.580780495344115 -3.5995233598617844 2.138219404677856 -4.992589799312553
lfemur -8.050025214504172 2.2522082716382847 -14.653522590506386
ltibia 60.09118803519275
lfoot -6.499441317151587 -4.470253211256249
ltoes -15.626815896504109
rfemur -19.68321824085873 4.369542048769919 29.177059834225478
rtibia 25.87001225902771
rfoot -5.341296697721894 -7.0761729336437815
rtoes 11.256302034553162
lowerback 11.003633994733029 -0.9405663953823515 2.331712583142684
upperback 0.004072794161199142 -0.6204469851835912 2.6649145424032414
thorax -6.1458806115279945 -0.2972005364575797 2.047563545790495
lowerneck -16.631604130163936 -3.442312028385457 -2.7199237641349336
upperneck 20.962394680205396 -4.687602869939377 2.8999993982291272
head 9.453010461531104 -2.1008109509635857 0.8209767073913883
lclavicle 2.9826434558189826e-16 5.483725937238236e-17
lhumerus -32.05215167001041 4.040202494909741 79.45160094681377
lradius 33.1194762705135
lwrist 11.966438836912904
lhand -29.972420210661337 17.728611911870626
lfingers 7.125020000000001
lthumb -3.0730532648287925 48.23948064302005
rclavicle 3.024676899199861e-16 5.758304886649602e-17
rhumerus -35.02045951327543 -21.564121977082998 -74.5923814033376
rradius 24.095806351680125
rwrist 6.548812164189902
rhand -17.23184408776879 23.39440927410987
rfingers 7.125020000000001
rthumb 8.898294744528103 -6.461563368082036
81
root 0.2138754355545568 18.007484963794766 11.988122557451248 -4.376524048388751 2.1344917931405742 -5.751847733691093
lfemur -11.995398298370713 2.1413379133291937 -13.313237547585366
ltibia 59.95957249628957
lfoot -7.116091169245973 -3.4591061868582003
ltoes -15.545969665237402
rfemur -16.812029902086056 4.984149502182573 30.734427697303087
rtibia 25.35444706133487
rfoot -5.8603523207119705 -6.947798097467715
rtoes 11.416139013861695
lowerback 11.184657002922583 -0.8442866665852853 3.0090860047126693
upperback -0.13154101084452846 -0.3474766795141577 2.774192521739841
thorax -6.24787980357087 -0.18895988843152026 1.6612873633557366
lowerneck -16.548193113057415 -3.4049932275044865 -2.677085257395649
upperneck 21.002262035543 -4.594901272919767 2.729189747117593
head 9.453146633159879 -2.0659486028545944 0.7891050588417714
lclavicle 2.982006737782748e-16 5.4803738528900114e-17
lhumerus -32.0124424176628 4.354273644678552 79.63998282052101
lradius 32.8809099379224
lwrist 11.654112765999024
lhand -29.899284276066815 18.1951858126561
lfingers 7.125020000000001
lthumb -3.0089677155385783 48.72411508109121
rclavicle 3.0228134668120247e-16 5.750848674542442e-17
rhumerus -35.16525299633995 -21.962001991408513 -74.38851311983002
rradius 23.581451493640582
rwrist 7.020603974849359
rhand -17.263159608183184 23.160512897517687
rfingers 7.125020000000001
rthumb 8.88266297799335 -6.659985856542843
82
root 0.3001965489979548 18.14816861255509 12.544098796860688 -4.10361947146982 1.3798512667683247 -5.826567060076938
lfemur -14.835152242229881 1.6797568612848455 -13.035152175030843
ltibia 57.78562535045804
lfoot -7.50311158856046 -3.022877409239412
ltoes -15.886276484028768
rfemur -14.159735015084978 5.09483230854384 31.597645418887552
rtibia 25.14062405611406
rfoot -6.4680271899342054 -7.065053574626374
rtoes 11.088568381528493
lowerback 10.974204423282584 -0.6456052073438225 3.0041170483271555
upperback -0.10203624049571382 -0.03659292188736074 2.740682716852581
thorax -6.238963389684076 -0.05385682571073272 1.2781554373504722
lowerneck -16.497815742582123 -3.387026981472076 -2.588119824322046
upperneck 21.031913120983894 -4.54335300026209 2.545617517427787
head 9.437685603697615 -2.04791435521001 0.7471744806630061
lclavicle 2.988180352562754e-16 5.5243949053781925e-17
lhumerus -32.14533330562486 4.350095939927831 79.81210839642921
lradius 32.797512655771115
lwrist 11.04532589763937
lhand -29.677255367388963 18.843483322614176
lfingers 7.125020000000001
lthumb -2.781267075108558 49.40562870491679
rclavicle 3.021781810394999e-16 5.735491339529943e-17
rhumerus -35.17955147203168 -22.05551666886698 -74.5201513809005
rradius 23.431371006605104
rwrist 7.13888499099473
rhand -17.260797618961487 22.94913963684455
rfingers 7.125020000000001
rthumb 8.899030301148912 -6.858486351590878
